# xmcd
#
# Track frame offsets:
#	182
#	11230
#	23367
#	36912
#	48550
#	63955
#	76805
#	89025
#	99322
#	111590
#	123745
#	136337
#	147370
#	162212
#
# Disc length: 2327 seconds
# Revision: 1
# Processed by: cddbd v1.5.2PL0 Copyright (c) Steve Scherf et al.
# Submitted via: dBpowerAMP V12.0
#
DISCID=be09150e
DTITLE=Various Artist - Classic Country Volume Five
DYEAR=1900
DGENRE=Country
TTITLE0=Jim Reeves - He'll Have to Go
TTITLE1=Skeeter Davis - The End of the World
TTITLE2=Waylon Jennings - Rhiannon
TTITLE3=Don Gibson - Oh, Lonesome Me
TTITLE4=George Hamilton IV - Canadian Pacific
TTITLE5=Charley Pride - Crystal Chandeliers
TTITLE6=Dolly Parton - Jolene
TTITLE7=Waylon Jennings - Ruby, Don't Take Your Love to Town
TTITLE8=Eddy Arnold - Make the World Go Away
TTITLE9=Hank Snow - I'm Movin' on
TTITLE10=Bobby Bare - 500 Miles Away from Home
TTITLE11=Floyd Cramer - Last Date
TTITLE12=Lorne Green - Ringo
TTITLE13=Hank Snow - Spanish Eyes
EXTD=
EXTT0=
EXTT1=
EXTT2=
EXTT3=
EXTT4=
EXTT5=
EXTT6=
EXTT7=
EXTT8=
EXTT9=
EXTT10=
EXTT11=
EXTT12=
EXTT13=
PLAYORDER=
